<?xml version="1.0" standalone="no"?>
<!DOCTYPE svg PUBLIC "-//W3C//DTD SVG 20010904//EN"
 "http://www.w3.org/TR/2001/REC-SVG-20010904/DTD/svg10.dtd">
<svg version="1.0" xmlns="http://www.w3.org/2000/svg"
 width="292.000000pt" height="292.000000pt" viewBox="0 0 292.000000 292.000000"
 preserveAspectRatio="xMidYMid meet">
<metadata>
Created by potrace 1.14, written by Peter Selinger 2001-2017
</metadata>
<g transform="translate(0.000000,292.000000) scale(0.100000,-0.100000)"
fill="#000000" stroke="none">
<path d="M1280 2910 c-25 -4 -63 -11 -85 -14 -91 -15 -211 -50 -290 -86 -108
-48 -162 -75 -173 -87 -7 -7 -18 -13 -23 -13 -10 0 -112 -71 -168 -117 -69
-56 -122 -114 -115 -125 4 -7 3 -8 -4 -4 -7 4 -12 2 -12 -3 0 -6 -5 -11 -11
-11 -12 0 -78 -70 -79 -83 0 -4 -11 -18 -25 -31 -14 -13 -25 -26 -25 -29 0 -6
-43 -74 -59 -93 -20 -24 -117 -235 -126 -274 -1 -3 -11 -36 -23 -75 -39 -127
-51 -221 -50 -400 0 -241 32 -402 114 -582 8 -17 14 -34 14 -39 0 -4 7 -15 16
-25 8 -9 16 -23 18 -31 1 -7 17 -38 36 -68 19 -30 42 -67 50 -81 17 -30 73
-101 108 -137 12 -12 22 -27 22 -32 0 -5 9 -12 20 -15 11 -3 20 -13 20 -21 0
-8 3 -14 8 -14 4 0 28 -20 54 -45 27 -25 52 -45 57 -45 5 0 12 -7 15 -16 3 -8
10 -12 16 -9 5 3 10 3 10 -2 0 -4 17 -19 38 -33 20 -14 43 -31 51 -38 24 -24
273 -138 346 -160 162 -48 231 -57 440 -57 156 0 219 4 285 18 128 28 300 88
328 114 7 7 22 13 33 13 10 0 19 5 19 11 0 5 4 8 9 5 5 -3 14 1 21 9 7 8 16
12 21 9 5 -3 9 -2 9 3 0 4 13 14 29 21 16 7 41 24 55 37 14 13 26 21 26 17 1
-4 9 3 19 15 10 12 21 20 23 18 3 -3 30 19 61 48 32 29 57 52 57 51 0 -3 132
139 154 166 7 8 23 31 36 50 13 19 27 37 30 40 4 3 17 26 30 53 13 26 27 47
32 47 4 0 7 3 6 7 -1 5 6 24 17 43 11 19 20 37 20 40 0 3 6 15 13 28 7 12 10
27 7 32 -3 6 -1 10 4 10 6 0 11 9 11 19 0 11 4 22 9 25 7 5 33 87 47 147 2 10
6 29 9 42 28 114 40 350 24 477 -12 99 -39 222 -51 238 -6 6 -8 12 -5 12 20 0
-122 324 -154 350 -3 3 -12 16 -19 30 -14 27 -106 149 -124 165 -6 6 -30 31
-53 57 -23 25 -44 43 -47 40 -3 -3 -6 2 -6 11 0 9 -5 17 -10 17 -9 0 -47 30
-86 68 -7 6 -17 12 -23 12 -6 0 -11 5 -11 10 0 6 -5 10 -10 10 -6 0 -20 8 -31
19 -49 45 -327 179 -412 197 -184 41 -267 51 -400 51 -78 0 -162 -3 -187 -7z"/>
</g>
</svg>
